<svg xmlns="http://www.w3.org/2000/svg" width="196.71999999999997" height="35" viewBox="0 0 196.71999999999997 35"><rect class="svg__rect" x="0" y="0" width="118.17" height="35" fill="#31C4F3"/><rect class="svg__rect" x="116.17" y="0" width="80.54999999999998" height="35" fill="#005384"/><path class="svg__text" d="M17.33 22L14.22 22L14.22 13.47L17.14 13.47Q18.59 13.47 19.34 14.05Q20.10 14.63 20.10 15.78L20.10 15.78Q20.10 16.36 19.78 16.83Q19.47 17.30 18.86 17.56L18.86 17.56Q19.55 17.75 19.93 18.26Q20.31 18.78 20.31 19.51L20.31 19.51Q20.31 20.71 19.53 21.36Q18.76 22 17.33 22L17.33 22ZM15.70 18.15L15.70 20.82L17.35 20.82Q18.04 20.82 18.44 20.47Q18.83 20.13 18.83 19.51L18.83 19.51Q18.83 18.18 17.47 18.15L17.47 18.15L15.70 18.15ZM15.70 14.66L15.70 17.06L17.15 17.06Q17.84 17.06 18.23 16.75Q18.62 16.43 18.62 15.86L18.62 15.86Q18.62 15.23 18.26 14.95Q17.90 14.66 17.14 14.66L17.14 14.66L15.70 14.66ZM24.51 18.00L24.51 18.00L24.51 17.52Q24.51 16.28 24.95 15.32Q25.39 14.37 26.20 13.86Q27.00 13.35 28.05 13.35Q29.09 13.35 29.89 13.85Q30.70 14.35 31.14 15.29Q31.58 16.23 31.58 17.48L31.58 17.48L31.58 17.96Q31.58 19.21 31.15 20.16Q30.72 21.10 29.91 21.61Q29.11 22.12 28.06 22.12L28.06 22.12Q27.02 22.12 26.21 21.61Q25.40 21.10 24.95 20.17Q24.51 19.23 24.51 18.00ZM25.99 17.46L25.99 17.96Q25.99 19.36 26.54 20.13Q27.08 20.90 28.06 20.90L28.06 20.90Q29.04 20.90 29.57 20.15Q30.10 19.40 30.10 17.96L30.10 17.96L30.10 17.51Q30.10 16.09 29.57 15.34Q29.03 14.58 28.05 14.58L28.05 14.58Q27.08 14.58 26.54 15.33Q26.00 16.09 25.99 17.46L25.99 17.46ZM37.73 14.66L35.09 14.66L35.09 13.47L41.86 13.47L41.86 14.66L39.20 14.66L39.20 22L37.73 22L37.73 14.66ZM47.30 14.66L44.66 14.66L44.66 13.47L51.43 13.47L51.43 14.66L48.77 14.66L48.77 22L47.30 22L47.30 14.66ZM60.54 22L55.19 22L55.19 13.47L56.67 13.47L56.67 20.82L60.54 20.82L60.54 22ZM70.24 22L64.67 22L64.67 13.47L70.20 13.47L70.20 14.66L66.15 14.66L66.15 17.02L69.65 17.02L69.65 18.19L66.15 18.19L66.15 20.82L70.24 20.82L70.24 22ZM76.89 22L74.44 22L74.44 13.47L76.96 13.47Q78.09 13.47 78.97 13.97Q79.84 14.48 80.32 15.40Q80.80 16.33 80.80 17.52L80.80 17.52L80.80 17.95Q80.80 19.16 80.32 20.08Q79.84 21.00 78.94 21.50Q78.05 22 76.89 22L76.89 22ZM75.92 14.66L75.92 20.82L76.89 20.82Q78.06 20.82 78.68 20.09Q79.30 19.36 79.31 17.99L79.31 17.99L79.31 17.52Q79.31 16.13 78.71 15.40Q78.11 14.66 76.96 14.66L76.96 14.66L75.92 14.66ZM92.81 22L91.33 22L91.33 13.47L92.81 13.47L92.81 22ZM99.10 22L97.62 22L97.62 13.47L99.10 13.47L102.92 19.54L102.92 13.47L104.39 13.47L104.39 22L102.90 22L99.10 15.95L99.10 22Z" fill="#FFFFFF"/><path class="svg__text" d="M132.74 22L130.36 22L130.36 13.60L136.95 13.60L136.95 15.44L132.74 15.44L132.74 17.28L136.45 17.28L136.45 19.12L132.74 19.12L132.74 22ZM147.93 22L141.54 22L141.54 13.60L143.92 13.60L143.92 20.11L147.93 20.11L147.93 22ZM153.77 22L151.34 22L155.05 13.60L157.39 13.60L161.11 22L158.64 22L157.98 20.37L154.43 20.37L153.77 22ZM156.20 15.93L155.12 18.61L157.28 18.61L156.20 15.93ZM164.68 21.24L164.68 21.24L165.46 19.49Q166.02 19.86 166.76 20.09Q167.51 20.32 168.23 20.32L168.23 20.32Q169.59 20.32 169.60 19.64L169.60 19.64Q169.60 19.28 169.21 19.11Q168.82 18.93 167.95 18.74L167.95 18.74Q167.00 18.53 166.37 18.30Q165.73 18.06 165.28 17.55Q164.82 17.03 164.82 16.16L164.82 16.16Q164.82 15.39 165.24 14.77Q165.66 14.15 166.50 13.79Q167.33 13.43 168.54 13.43L168.54 13.43Q169.36 13.43 170.17 13.62Q170.98 13.80 171.59 14.17L171.59 14.17L170.86 15.93Q169.66 15.28 168.53 15.28L168.53 15.28Q167.82 15.28 167.49 15.49Q167.17 15.70 167.17 16.04L167.17 16.04Q167.17 16.37 167.56 16.54Q167.94 16.71 168.79 16.89L168.79 16.89Q169.75 17.10 170.38 17.33Q171.01 17.56 171.47 18.07Q171.94 18.58 171.94 19.46L171.94 19.46Q171.94 20.21 171.52 20.83Q171.10 21.44 170.26 21.80Q169.42 22.17 168.22 22.17L168.22 22.17Q167.20 22.17 166.23 21.92Q165.27 21.67 164.68 21.24ZM178.87 22L176.51 22L176.51 13.60L178.87 13.60L178.87 17.09L182.12 13.60L184.73 13.60L181.31 17.32L184.91 22L182.15 22L179.75 18.95L178.87 19.90L178.87 22Z" fill="#FFFFFF" x="129.17000000000002"/></svg>